<?xml version="1.0" encoding="UTF-8" standalone="no"?>
<!-- Created with Inkscape (http://www.inkscape.org/) -->

<svg
   version="1.1"
   id="svg1"
   width="359.58667"
   height="359.58667"
   viewBox="0 0 359.58667 359.58667"
   sodipodi:docname="cut_at_home_trampoline_frame.pdf"
   xmlns:inkscape="http://www.inkscape.org/namespaces/inkscape"
   xmlns:sodipodi="http://sodipodi.sourceforge.net/DTD/sodipodi-0.dtd"
   xmlns="http://www.w3.org/2000/svg"
   xmlns:svg="http://www.w3.org/2000/svg">
  <defs
     id="defs1" />
  <sodipodi:namedview
     id="namedview1"
     pagecolor="#ffffff"
     bordercolor="#000000"
     borderopacity="0.25"
     inkscape:showpageshadow="2"
     inkscape:pageopacity="0.0"
     inkscape:pagecheckerboard="0"
     inkscape:deskcolor="#d1d1d1" />
  <g
     id="g1"
     inkscape:groupmode="layer"
     inkscape:label="1">
    <path
       id="path1"
       d="M 0,0 H 192.75838 V 192.75838 H 0 Z"
       style="fill:none;stroke:#000000;stroke-width:0.0075;stroke-linecap:butt;stroke-linejoin:miter;stroke-miterlimit:10;stroke-dasharray:none;stroke-opacity:1"
       transform="matrix(1.3333333,0,0,-1.3333333,51.289333,308.29733)" />
    <path
       id="path2"
       d="m -38.26819,-38.26819 h 49.6069 v 4.25202 h 11.33873 v -4.25202 h 11.33873 v 4.25202 H 45.3549 v -4.25202 h 11.33873 v 4.25202 h 11.33873 v -4.25202 H 79.3711 v 4.25202 h 11.33872 v -4.25202 h 11.33873 v 4.25202 h 11.33873 v -4.25202 h 11.33873 v 4.25202 h 11.33873 v -4.25202 h 11.33873 v 4.25202 h 11.33872 v -4.25202 h 11.33873 v 4.25202 h 11.33873 v -4.25202 h 49.60693 v 49.6069 h -4.25201 v 11.33873 h 4.25201 v 11.33873 h -4.25201 V 45.3549 h 4.25201 v 11.33873 h -4.25201 v 11.33873 h 4.25201 V 79.3711 h -4.25201 v 11.33872 h 4.25201 v 11.33873 h -4.25201 v 11.33873 h 4.25201 v 11.33873 h -4.25201 v 11.33873 h 4.25201 v 11.33873 h -4.25201 v 11.33872 h 4.25201 v 11.33873 h -4.25201 v 11.33873 h 4.25201 v 49.60693 h -49.60693 v -4.25201 h -11.33873 v 4.25201 h -11.33873 v -4.25201 h -11.33872 v 4.25201 h -11.33873 v -4.25201 h -11.33873 v 4.25201 h -11.33873 v -4.25201 h -11.33873 v 4.25201 H 90.70982 v -4.25201 H 79.3711 v 4.25201 H 68.03236 v -4.25201 H 56.69363 v 4.25201 H 45.3549 v -4.25201 H 34.01617 v 4.25201 H 22.67744 v -4.25201 H 11.33871 v 4.25201 h -49.6069 v -49.60693 h 4.25202 v -11.33873 h -4.25202 v -11.33873 h 4.25202 v -11.33872 h -4.25202 v -11.33873 h 4.25202 v -11.33873 h -4.25202 v -11.33873 h 4.25202 v -11.33873 h -4.25202 V 90.70982 h 4.25202 V 79.3711 h -4.25202 V 68.03236 h 4.25202 V 56.69363 h -4.25202 V 45.3549 h 4.25202 V 34.01617 h -4.25202 V 22.67744 h 4.25202 V 11.33871 h -4.25202 z"
       style="fill:none;stroke:#000000;stroke-width:0.0075;stroke-linecap:butt;stroke-linejoin:miter;stroke-miterlimit:10;stroke-dasharray:none;stroke-opacity:1"
       transform="matrix(1.3333333,0,0,-1.3333333,51.289333,308.29733)" />
    <path
       id="path3"
       d="M -17.00807,-29.0346 -4.98154,-17.00807 -17.00807,-4.98154 -29.0346,-17.00807 Z"
       style="fill:none;stroke:#000000;stroke-width:0.0075;stroke-linecap:butt;stroke-linejoin:miter;stroke-miterlimit:10;stroke-dasharray:none;stroke-opacity:1"
       transform="matrix(1.3333333,0,0,-1.3333333,51.289333,308.29733)" />
    <path
       id="path4"
       d="M 209.76646,-29.0346 221.793,-17.00807 209.76646,-4.98154 197.73994,-17.00807 Z"
       style="fill:none;stroke:#000000;stroke-width:0.0075;stroke-linecap:butt;stroke-linejoin:miter;stroke-miterlimit:10;stroke-dasharray:none;stroke-opacity:1"
       transform="matrix(1.3333333,0,0,-1.3333333,51.289333,308.29733)" />
    <path
       id="path5"
       d="M 209.76646,197.73994 221.793,209.76646 209.76646,221.793 197.73994,209.76646 Z"
       style="fill:none;stroke:#000000;stroke-width:0.0075;stroke-linecap:butt;stroke-linejoin:miter;stroke-miterlimit:10;stroke-dasharray:none;stroke-opacity:1"
       transform="matrix(1.3333333,0,0,-1.3333333,51.289333,308.29733)" />
    <path
       id="path6"
       d="M -17.00807,197.73994 -4.98154,209.76646 -17.00807,221.793 -29.0346,209.76646 Z"
       style="fill:none;stroke:#000000;stroke-width:0.0075;stroke-linecap:butt;stroke-linejoin:miter;stroke-miterlimit:10;stroke-dasharray:none;stroke-opacity:1"
       transform="matrix(1.3333333,0,0,-1.3333333,51.289333,308.29733)" />
    <path
       id="path7"
       d="m 124.72601,124.72601 h 17.00808 v 17.00808 h 8.50404 v 17.0081 h -34.01616 v -17.0081 h 8.50404 z"
       style="fill:none;stroke:#000000;stroke-width:0.0075;stroke-linecap:butt;stroke-linejoin:miter;stroke-miterlimit:10;stroke-dasharray:none;stroke-opacity:1"
       transform="matrix(1.3333333,0,0,-1.3333333,51.289333,308.29733)" />
    <path
       id="path8"
       d="m 68.03236,124.72601 h 17.00808 v 17.00808 h 8.50404 v 17.0081 H 59.52832 v -17.0081 h 8.50404 z"
       style="fill:none;stroke:#000000;stroke-width:0.0075;stroke-linecap:butt;stroke-linejoin:miter;stroke-miterlimit:10;stroke-dasharray:none;stroke-opacity:1"
       transform="matrix(1.3333333,0,0,-1.3333333,51.289333,308.29733)" />
    <path
       id="path9"
       d="m 124.72601,68.03236 h 17.00808 v 17.00808 h 8.50404 v 17.0081 h -34.01616 v -17.0081 h 8.50404 z"
       style="fill:none;stroke:#000000;stroke-width:0.0075;stroke-linecap:butt;stroke-linejoin:miter;stroke-miterlimit:10;stroke-dasharray:none;stroke-opacity:1"
       transform="matrix(1.3333333,0,0,-1.3333333,51.289333,308.29733)" />
    <path
       id="path10"
       d="m 68.03236,68.03236 h 17.00808 v 17.00808 h 8.50404 v 17.0081 H 59.52832 v -17.0081 h 8.50404 z"
       style="fill:none;stroke:#000000;stroke-width:0.0075;stroke-linecap:butt;stroke-linejoin:miter;stroke-miterlimit:10;stroke-dasharray:none;stroke-opacity:1"
       transform="matrix(1.3333333,0,0,-1.3333333,51.289333,308.29733)" />
  </g>
</svg>
