<?xml version="1.0" standalone="no"?>
<!DOCTYPE svg PUBLIC "-//W3C//DTD SVG 1.1//EN"
  "http://www.w3.org/Graphics/SVG/1.1/DTD/svg11.dtd">
<svg width="96.51000213623047mm" height="96.51000213623044mm" viewBox="-45.255001068115234 -36.25500106811523 96.51000213623047 96.51000213623044" xmlns="http://www.w3.org/2000/svg" version="1.1">
	<title>svgOutput</title>
	<desc>made with tinkercad</desc>
<path d="M 29 59.25500106811522 L 25 59.25500106811522 L 25 57.999999999999986 L 21 57.999999999999986 L 21 59.25500106811522 L 17 59.25500106811522 L 17 57.999999999999986 L 13 57.999999999999986 L 13 59.25500106811522 L 9 59.25500106811522 L 9 57.999999999999986 L 5 57.999999999999986 L 5 59.25500106811522 L 1 59.25500106811522 L 1 57.999999999999986 L -3 57.999999999999986 L -3 59.25500106811522 L -7 59.25500106811522 L -7 57.999999999999986 L -11 57.999999999999986 L -11 59.25500106811522 L -15 59.25500106811522 L -15 57.999999999999986 L -19 57.999999999999986 L -19 59.25500106811522 L -23 59.25500106811522 L -23 57.999999999999986 L -27 57.999999999999986 L -27 59.25500106811522 L -31 59.25500106811522 L -43 59.25500106811522 L -44.255001068115234 59.25500106811522 L -44.255001068115234 45.99999999999999 L -44.255001068115234 41.99999999999999 L -43 41.99999999999999 L -43 37.99999999999999 L -44.255001068115234 37.99999999999999 L -44.255001068115234 33.99999999999999 L -43 33.99999999999999 L -43 29.999999999999993 L -44.255001068115234 29.999999999999993 L -44.255001068115234 25.999999999999993 L -43 25.999999999999993 L -43 21.999999999999996 L -44.255001068115234 21.999999999999996 L -44.255001068115234 17.999999999999996 L -43 17.999999999999996 L -43 13.999999999999996 L -44.255001068115234 13.999999999999996 L -44.255001068115234 9.999999999999998 L -43 9.999999999999998 L -43 5.999999999999998 L -44.255001068115234 5.999999999999998 L -44.255001068115234 1.9999999999999996 L -43 1.9999999999999996 L -43 -1.9999999999999996 L -44.255001068115234 -1.9999999999999996 L -44.255001068115234 -5.999999999999998 L -43 -5.999999999999998 L -43 -9.999999999999998 L -44.255001068115234 -9.999999999999998 L -44.255001068115234 -13.999999999999996 L -43 -13.999999999999996 L -43 -17.999999999999996 L -44.255001068115234 -17.999999999999996 L -44.255001068115234 -21.999999999999996 L -44.255001068115234 -33.99999999999999 L -44.255001068115234 -35.25500106811523 L -31 -35.25500106811523 L -27 -35.25500106811523 L -27 -33.99999999999999 L -23 -33.99999999999999 L -23 -35.25500106811523 L -19 -35.25500106811523 L -19 -33.99999999999999 L -15 -33.99999999999999 L -15 -35.25500106811523 L -11 -35.25500106811523 L -11 -33.99999999999999 L -7 -33.99999999999999 L -7 -35.25500106811523 L -3 -35.25500106811523 L -3 -33.99999999999999 L 1 -33.99999999999999 L 1 -35.25500106811523 L 5 -35.25500106811523 L 5 -33.99999999999999 L 9 -33.99999999999999 L 9 -35.25500106811523 L 13 -35.25500106811523 L 13 -33.99999999999999 L 17 -33.99999999999999 L 17 -35.25500106811523 L 21 -35.25500106811523 L 21 -33.99999999999999 L 25 -33.99999999999999 L 25 -35.25500106811523 L 29 -35.25500106811523 L 29 -33.99999999999999 L 33 -33.99999999999999 L 33 -35.25500106811523 L 37 -35.25500106811523 L 49 -35.25500106811523 L 50.255001068115234 -35.25500106811523 L 50.255001068115234 -21.999999999999996 L 50.255001068115234 -17.999999999999996 L 49 -17.999999999999996 L 49 -13.999999999999996 L 50.255001068115234 -13.999999999999996 L 50.255001068115234 -9.999999999999998 L 49 -9.999999999999998 L 49 -5.999999999999998 L 50.255001068115234 -5.999999999999998 L 50.255001068115234 -1.9999999999999996 L 49 -1.9999999999999996 L 49 1.9999999999999996 L 50.255001068115234 1.9999999999999996 L 50.255001068115234 5.999999999999998 L 49 5.999999999999998 L 49 9.999999999999998 L 50.255001068115234 9.999999999999998 L 50.255001068115234 13.999999999999996 L 49 13.999999999999996 L 49 17.999999999999996 L 50.255001068115234 17.999999999999996 L 50.255001068115234 21.999999999999996 L 49 21.999999999999996 L 49 25.999999999999993 L 50.255001068115234 25.999999999999993 L 50.255001068115234 29.999999999999993 L 49 29.999999999999993 L 49 33.99999999999999 L 50.255001068115234 33.99999999999999 L 50.255001068115234 37.99999999999999 L 49 37.99999999999999 L 49 41.99999999999999 L 50.255001068115234 41.99999999999999 L 50.255001068115234 45.99999999999999 L 50.255001068115234 57.999999999999986 L 50.255001068115234 59.25500106811522 L 37 59.25500106811522 L 33 59.25500106811522 L 33 57.999999999999986 L 29 57.999999999999986 L 29 59.25500106811522 M -31.003000259399414 46.002998352050774 L -31 46.002998352050774 L -27 46.002998352050774 L -23 46.002998352050774 L -19 46.002998352050774 L -15 46.002998352050774 L -11 46.002998352050774 L -7 46.002998352050774 L -3 46.002998352050774 L 1 46.002998352050774 L 5 46.002998352050774 L 9 46.002998352050774 L 13 46.002998352050774 L 17 46.002998352050774 L 21 46.002998352050774 L 25 46.002998352050774 L 29 46.002998352050774 L 33 46.002998352050774 L 37 46.002998352050774 L 37.00299835205078 46.002998352050774 L 37.00299835205078 45.99999999999999 L 37.00299835205078 41.99999999999999 L 37.00299835205078 37.99999999999999 L 37.00299835205078 33.99999999999999 L 37.00299835205078 29.999999999999993 L 37.00299835205078 25.999999999999993 L 37.00299835205078 21.999999999999996 L 37.00299835205078 17.999999999999996 L 37.00299835205078 13.999999999999996 L 37.00299835205078 9.999999999999998 L 37.00299835205078 5.999999999999998 L 37.00299835205078 1.9999999999999996 L 37.00299835205078 -1.9999999999999996 L 37.00299835205078 -5.999999999999998 L 37.00299835205078 -9.999999999999998 L 37.00299835205078 -13.999999999999996 L 37.00299835205078 -17.999999999999996 L 37.00299835205078 -21.999999999999996 L 37.00299835205078 -22.00300025939941 L 37 -22.00300025939941 L -31 -22.00300025939941 L -31.003000259399414 -22.00300025939941 L -31.003000259399414 -21.999999999999996 L -31.003000259399414 -17.999999999999996 L -31.003000259399414 -13.999999999999996 L -31.003000259399414 -9.999999999999998 L -31.003000259399414 -5.999999999999998 L -31.003000259399414 -1.9999999999999996 L -31.003000259399414 1.9999999999999996 L -31.003000259399414 5.999999999999998 L -31.003000259399414 9.999999999999998 L -31.003000259399414 13.999999999999996 L -31.003000259399414 17.999999999999996 L -31.003000259399414 21.999999999999996 L -31.003000259399414 25.999999999999993 L -31.003000259399414 29.999999999999993 L -31.003000259399414 33.99999999999999 L -31.003000259399414 37.99999999999999 L -31.003000259399414 41.99999999999999 L -31.003000259399414 45.99999999999999 L -31.003000259399414 46.002998352050774 z" fill="none" stroke="rgb(255,0,0)" stroke-width="0.001mm" />
</svg>